# xmcd
#
# Track frame offsets:
#	150
#	24318
#	45511
#	64733
#	85029
#	100510
#	117719
#	137237
#	155477
#	173021
#	191174
#	207069
#	227048
#	243177
#	259457
#	287697
#	305764
#	330346
#
# Disc length: 4795 seconds
#
# Revision: 0
# Processed by: cddbd v1.4PL0 Copyright (c) Steve Scherf et al.
# Submitted via: audiograbber 1.82.01
#
DISCID=f612b912
DTITLE=SADE - Music Heritage
DYEAR=2001
DGENRE=
TTITLE0=Jezebel
TTITLE1=King Of Sorrow
TTITLE2=Smooth Operador
TTITLE3=By Your Side
TTITLE4=Paradise
TTITLE5=Immigrant
TTITLE6=The Sweetest Taboo
TTITLE7=Kiss Of Life
TTITLE8=I NEver Thouht I`d See The Day
TTITLE9=Fear
TTITLE10=Like A Tatoo
TTITLE11=Pearls
TTITLE12=Please Send Me
TTITLE13=Hand On To Your Love
TTITLE14=Is It Crime
TTITLE15=Every Wold
TTITLE16=Cherish The Day
TTITLE17=No Ordinary Love
EXTD=2001 Quattro , EMI Electrola GmbH\nUK > 495 7332
EXTT0=
EXTT1=
EXTT2=
EXTT3=
EXTT4=
EXTT5=
EXTT6=
EXTT7=
EXTT8=
EXTT9=
EXTT10=
EXTT11=
EXTT12=
EXTT13=
EXTT14=
EXTT15=
EXTT16=
EXTT17=
PLAYORDER=
